<svg width="32" height="24" viewBox="0 0 32 24" fill="none" xmlns="http://www.w3.org/2000/svg">
<path d="M17.6128 0.774891L15.7419 2.64574L13.8711 4.51659L12.0002 6.38744L10.1294 8.25829L8.25855 10.1291L6.3877 12L8.25855 13.8708L10.1294 12L12.0002 10.1291L13.8711 8.25829L15.7419 6.38744L17.6128 4.51659L19.0159 3.11352C19.2741 2.85529 19.6929 2.85529 19.9514 3.11352L21.3545 4.51659L23.2253 6.38744L25.0962 8.25829L26.967 10.1291L28.3701 11.5322C28.6284 11.7904 28.6284 12.2093 28.3701 12.4678L26.967 13.8708L25.0962 15.7417L23.2253 17.6125L21.3545 19.4834L19.4836 21.3542L17.6128 23.2251C18.646 24.2583 20.3213 24.2583 21.3545 23.2251L23.2253 21.3542L25.0962 19.4834L26.967 17.6125L28.8379 15.7417L30.7088 13.8708C31.7419 12.8377 31.7419 11.1623 30.7088 10.1291L28.8379 8.25829L26.967 6.38744L25.0962 4.51659L23.2253 2.64574L21.3545 0.774891C20.3213 -0.258297 18.646 -0.258297 17.6128 0.774891Z" fill="#425563"/>
<path d="M19.4837 17.6129L21.3545 15.742L23.2254 13.8712L25.0962 12.0003L23.2254 10.1295L21.3545 12.0003L19.4837 13.8712L17.6128 15.742L15.742 17.6129L13.8711 19.4837L12.468 20.8868C12.2098 21.145 11.791 21.145 11.5325 20.8868L10.1294 19.4837L12.0003 17.6129L13.8711 15.742L15.742 13.8712L17.6128 12.0003L19.4837 10.1295L21.3545 8.25861L19.4837 6.38776L17.6128 8.25861L15.742 10.1295L13.8711 12.0003L12.0003 13.8712L10.1294 15.742L8.25856 17.6129L6.38771 15.742L4.51686 13.8712L3.11378 12.4681C2.85555 12.2099 2.85555 11.791 3.11378 11.5325L4.51686 10.1295L6.38771 8.25861L8.25856 6.38776L10.1294 4.51691L12.0003 2.64606L13.8711 0.775211C12.8379 -0.257977 11.1626 -0.257977 10.1294 0.775211L8.25856 2.64606L6.38771 4.51691L4.51686 6.38776L2.64601 8.25861L0.774891 10.1292C-0.258297 11.1624 -0.258297 12.8377 0.774891 13.8709L2.64574 15.7417L4.51659 17.6126L6.38744 19.4834L8.25829 21.3543L10.1291 23.2251C11.1623 24.2583 12.8377 24.2583 13.8708 23.2251L15.7417 21.3543L17.6125 19.4834L19.4834 17.6126L19.4837 17.6129Z" fill="#425563"/>
</svg>